<svg width="18" height="18" viewBox="0 0 18 18" fill="none" xmlns="http://www.w3.org/2000/svg">
<path fill-rule="evenodd" clip-rule="evenodd" d="M1.71429 0C2.18767 0 2.57143 0.383756 2.57143 0.857143V1.71429C2.57143 2.18767 2.18767 2.57143 1.71429 2.57143C1.2409 2.57143 0.857143 2.18767 0.857143 1.71429V0.857143C0.857143 0.383756 1.2409 0 1.71429 0ZM1.71429 4.28571C2.66106 4.28571 3.42857 5.05323 3.42857 6C3.42857 6.94677 2.66106 7.71429 1.71429 7.71429C0.767511 7.71429 0 6.94677 0 6C0 5.05323 0.767511 4.28571 1.71429 4.28571ZM16.2857 6.85714C17.2325 6.85714 18 7.62465 18 8.57143C18 9.51823 17.2325 10.2857 16.2857 10.2857C15.3389 10.2857 14.5714 9.51823 14.5714 8.57143C14.5714 7.62465 15.3389 6.85714 16.2857 6.85714ZM8.57143 9.42857C9.51823 9.42857 10.2857 10.1961 10.2857 11.1429C10.2857 12.0897 9.51823 12.8571 8.57143 12.8571C7.62465 12.8571 6.85714 12.0897 6.85714 11.1429C6.85714 10.1961 7.62465 9.42857 8.57143 9.42857ZM8.57143 14.5714C9.04483 14.5714 9.42857 14.9552 9.42857 15.4286V17.1429C9.42857 17.6163 9.04483 18 8.57143 18C8.09804 18 7.71429 17.6163 7.71429 17.1429V15.4286C7.71429 14.9552 8.09804 14.5714 8.57143 14.5714ZM1.71429 9.42857C2.18767 9.42857 2.57143 9.81231 2.57143 10.2857V17.1429C2.57143 17.6163 2.18767 18 1.71429 18C1.2409 18 0.857143 17.6163 0.857143 17.1429V10.2857C0.857143 9.81231 1.2409 9.42857 1.71429 9.42857ZM16.2857 0C16.7591 0 17.1429 0.383756 17.1429 0.857143V4.28571C17.1429 4.7591 16.7591 5.14286 16.2857 5.14286C15.8123 5.14286 15.4286 4.7591 15.4286 4.28571V0.857143C15.4286 0.383756 15.8123 0 16.2857 0ZM16.2857 11.1429C16.7591 11.1429 17.1429 11.5266 17.1429 12V17.1429C17.1429 17.6163 16.7591 18 16.2857 18C15.8123 18 15.4286 17.6163 15.4286 17.1429V12C15.4286 11.5266 15.8123 11.1429 16.2857 11.1429ZM8.57143 0C9.04483 0 9.42857 0.383756 9.42857 0.857143V6.85714C9.42857 7.33053 9.04483 7.71429 8.57143 7.71429C8.09804 7.71429 7.71429 7.33053 7.71429 6.85714V0.857143C7.71429 0.383756 8.09804 0 8.57143 0Z" fill="#30E985"/>
</svg>
