<svg width="21" height="29" viewBox="0 0 21 29" fill="none" xmlns="http://www.w3.org/2000/svg">
<path d="M20.8417 10.1097L9.37393 28.5156C9.27837 28.8063 8.89611 29 8.60942 29C8.51385 29 8.41829 29 8.32272 28.9031C7.94046 28.7094 7.65377 28.3219 7.74934 27.8375L9.37393 15.4378H0.964261C0.582004 15.4378 0.29531 15.244 0.104181 14.9534C-0.0869474 14.6628 0.00861697 14.2753 0.199746 13.9847L9.75619 0.422433C10.0429 0.0349402 10.4251 -0.0619329 10.8074 0.0349402C11.1897 0.131813 11.4763 0.519306 11.4763 0.906798V8.65665H20.0771C20.4594 8.65665 20.7461 8.85039 20.9372 9.14101C21.0328 9.43163 21.0328 9.81912 20.8417 10.1097Z" fill="#FFC10A"/>
</svg>
