<svg width="14" height="17" viewBox="0 0 14 17" fill="none" xmlns="http://www.w3.org/2000/svg">
<mask id="mask0_51_1478" style="mask-type:luminance" maskUnits="userSpaceOnUse" x="0" y="10" width="14" height="7">
<path fill-rule="evenodd" clip-rule="evenodd" d="M0 10.691H13.552V17H0V10.691Z" fill="white"/>
</mask>
<g mask="url(#mask0_51_1478)">
<path fill-rule="evenodd" clip-rule="evenodd" d="M6.77708 11.9744C3.13152 11.9744 1.28351 12.6007 1.28351 13.837C1.28351 15.0844 3.13152 15.7166 6.77708 15.7166C10.4218 15.7166 12.2689 15.0904 12.2689 13.8541C12.2689 12.6067 10.4218 11.9744 6.77708 11.9744M6.77691 17C5.10087 17 0 17 0 13.8369C0 11.017 3.868 10.691 6.77691 10.691C8.45296 10.691 13.5521 10.691 13.5521 13.8541C13.5521 16.674 9.68497 17 6.77691 17" fill="#808383"/>
</g>
<mask id="mask1_51_1478" style="mask-type:luminance" maskUnits="userSpaceOnUse" x="2" y="0" width="10" height="10">
<path fill-rule="evenodd" clip-rule="evenodd" d="M2.2334 0H11.3195V9.08488H2.2334V0Z" fill="white"/>
</mask>
<g mask="url(#mask1_51_1478)">
<path fill-rule="evenodd" clip-rule="evenodd" d="M6.77682 1.2214C4.94506 1.2214 3.45467 2.71093 3.45467 4.54269C3.44868 6.36846 4.92795 7.85714 6.75201 7.86399L6.77682 8.47486V7.86399C8.60772 7.86399 10.0973 6.3736 10.0973 4.54269C10.0973 2.71093 8.60772 1.2214 6.77682 1.2214M6.77732 9.08498H6.74994C4.24999 9.07728 2.22487 7.03847 2.23343 4.54023C2.23343 2.03771 4.27138 -0.000244141 6.77732 -0.000244141C9.28241 -0.000244141 11.3195 2.03771 11.3195 4.54279C11.3195 7.04788 9.28241 9.08498 6.77732 9.08498" fill="#808383"/>
</g>
</svg>
