<svg width="26" height="26" viewBox="0 0 26 26" fill="none" xmlns="http://www.w3.org/2000/svg">
<path d="M18.027 23.8333H7.97364C6.87858 23.7935 5.8585 23.2668 5.19201 22.397C4.52552 21.5272 4.28225 20.4052 4.52864 19.3375L4.78864 18.1025C5.08768 16.4307 6.52481 15.2021 8.22281 15.1667H17.7778C19.4758 15.2021 20.9129 16.4307 21.212 18.1025L21.472 19.3375C21.7184 20.4052 21.4751 21.5272 20.8086 22.397C20.1421 23.2668 19.122 23.7935 18.027 23.8333Z" fill="#808383" fill-opacity="0.5"/>
<path d="M13.542 13H12.4586C10.0654 13 8.12531 11.0599 8.12531 8.66667V5.80667C8.12242 4.8404 8.50499 3.91287 9.18825 3.22961C9.87151 2.54636 10.799 2.16378 11.7653 2.16667H14.2353C15.2016 2.16378 16.1291 2.54636 16.8124 3.22961C17.4956 3.91287 17.8782 4.8404 17.8753 5.80667V8.66667C17.8753 9.81594 17.4188 10.9181 16.6061 11.7308C15.7934 12.5435 14.6912 13 13.542 13Z" fill="#808383" fill-opacity="0.5"/>
</svg>
