<svg width="208" height="209" viewBox="0 0 208 209" fill="none" xmlns="http://www.w3.org/2000/svg">
<g clip-path="url(#clip0_113_2723)">
<path opacity="0.18" d="M78.6276 39.3573C75.358 47.2257 74.6671 56.1585 70.1519 63.3814C63.3023 74.3415 49.6206 78.5775 39.6236 86.76C29.686 94.9007 23.3737 107.738 24.3647 120.547C25.3557 133.357 34.2466 145.556 46.5605 149.212C50.8279 150.483 55.4583 150.8 59.3001 153.051C67.8664 158.068 69.161 170.403 76.8305 176.705C83.6906 182.34 93.7748 181.642 102.261 179.046C110.747 176.45 118.902 172.235 127.761 171.701C133.044 171.384 138.358 172.399 143.62 171.851C150.327 171.153 156.489 167.964 162.386 164.691C172.641 158.997 183.671 151.383 185.377 139.777C187.331 126.406 175.844 114.281 176.026 100.766C176.109 94.4855 178.747 88.4384 178.992 82.1471C179.341 73.4691 174.693 64.7702 167.302 60.2131C161.255 56.4795 153.886 55.5164 147.567 52.2678C139 47.8643 133.107 39.7062 125.838 33.3974C112.687 21.9838 86.2483 21.0033 78.6276 39.3573Z" fill="#30E985"/>
<path d="M134.397 79.3452C135.5 77.7715 137.82 77.5098 139.631 78.1623C141.442 78.8148 142.894 80.1617 144.398 81.3585C145.902 82.5554 147.632 83.665 149.555 83.6964C150.323 83.6964 151.101 83.5429 151.858 83.6755C152.554 83.8223 153.179 84.2062 153.624 84.7616C154.069 85.3171 154.308 86.0098 154.3 86.7217C148.779 86.4052 143.247 87.115 137.984 88.8153C135.392 89.6527 132.401 90.6891 130.109 89.2026C129.254 88.6443 128.594 87.772 127.638 87.4195C125.667 86.6938 123.451 88.4663 121.452 87.7999C120.59 87.5068 119.948 86.8019 119.187 86.296C116.671 84.6246 113.178 85.3329 110.52 83.8988C110.294 83.8021 110.091 83.6589 109.925 83.4785C109.758 83.2982 109.631 83.0847 109.553 82.852C109.413 82.189 110 81.5539 110.652 81.362C111.305 81.1701 111.999 81.2818 112.676 81.3306C114.414 81.4465 116.151 81.0997 117.711 80.3257C118.367 79.9977 119.048 79.5825 119.773 79.6871C121.214 79.893 122.275 82.032 123.57 81.376C122.624 81.854 122.976 78.6717 123.144 78.3647C123.688 77.3842 125.461 76.6933 126.483 76.4316C129.379 75.6814 132.754 76.8015 134.397 79.3452Z" fill="#30E985"/>
<path d="M134.397 79.3452C135.5 77.7715 137.82 77.5098 139.631 78.1623C141.442 78.8148 142.894 80.1617 144.398 81.3585C145.902 82.5554 147.632 83.665 149.555 83.6964C150.323 83.6964 151.101 83.5429 151.858 83.6755C152.554 83.8223 153.179 84.2062 153.624 84.7616C154.069 85.3171 154.308 86.0098 154.3 86.7217C148.779 86.4052 143.247 87.115 137.984 88.8153C135.392 89.6527 132.401 90.6891 130.109 89.2026C129.254 88.6443 128.594 87.772 127.638 87.4195C125.667 86.6938 123.451 88.4663 121.452 87.7999C120.59 87.5068 119.948 86.8019 119.187 86.296C116.671 84.6246 113.178 85.3329 110.52 83.8988C110.294 83.8021 110.091 83.6589 109.925 83.4785C109.758 83.2982 109.631 83.0847 109.553 82.852C109.413 82.189 110 81.5539 110.652 81.362C111.305 81.1701 111.999 81.2818 112.676 81.3306C114.414 81.4465 116.151 81.0997 117.711 80.3257C118.367 79.9977 119.047 79.5825 119.773 79.6871C121.214 79.893 122.275 82.032 123.57 81.376C122.624 81.854 122.976 78.6717 123.144 78.3647C123.688 77.3842 125.461 76.6933 126.483 76.4316C129.379 75.6814 132.754 76.8015 134.397 79.3452Z" fill="url(#paint0_linear_113_2723)"/>
<path d="M114.295 0.224243L76.9141 40.0482H94.148V79.2301H132.098V39.7271H148.449L114.295 0.224243ZM31.9189 76.3793L54.987 51.0606L78.8158 75.8838H64.1815V107.85H43.8665V76.3793H31.9189ZM147.388 63.5071L170.457 38.1883L194.285 63.0116H179.651V94.9775H159.336V63.5071H147.388Z" fill="#30E985"/>
<path d="M108.789 111.011C108.789 111.011 108.817 142.244 107.428 145.168C106.336 147.468 96.7821 150.852 92.7519 152.196C91.6597 152.562 90.9688 152.775 90.9688 152.775L91.7435 137.869C91.4264 139.886 90.9289 141.872 90.257 143.8C89.3184 146.351 87.9052 148.619 85.9232 147.988C81.7604 146.665 80.588 145.894 80.588 145.894L78.8154 139.613C78.8154 139.613 85.4801 136.605 85.6057 132.952C85.7313 129.299 87.8633 118.363 93.6521 115.948L94.8455 115.45L99.441 113.534C99.441 113.534 103.279 101.695 102.449 91.7568C101.618 81.8192 102.449 80.3292 102.449 80.3292H108.297C108.297 80.3292 108.688 90.5077 108.789 93.348C108.89 96.1883 108.789 111.011 108.789 111.011Z" fill="#3F3D56"/>
<path d="M104.466 105.571C103.82 108.157 102.802 110.631 101.786 113.094C101.263 114.141 100.949 116.43 99.881 117.107C98.7435 117.829 96.6464 116.294 95.5752 115.812C95.3344 115.701 95.0866 115.586 94.8459 115.463L99.4414 113.548C99.4414 113.548 103.28 101.708 102.449 91.7707C101.619 81.8331 102.449 80.3431 102.449 80.3431H103.042C103.137 80.3894 103.225 80.448 103.304 80.5176C103.88 81.0096 103.964 81.854 104.002 82.6112C104.135 84.7886 104.264 86.9938 103.841 89.1328C103.581 90.1329 103.375 91.1463 103.224 92.1685C103.133 93.1979 103.315 94.3075 103.998 95.0821C104.319 95.4311 104.745 95.7242 104.975 96.1499C105.154 96.5271 105.243 96.9401 105.237 97.3572C105.391 100.118 105.131 102.887 104.466 105.571ZM94.5563 149.048C94.2685 149.512 94.0343 150.008 93.8584 150.524C93.811 150.764 93.7373 150.998 93.6386 151.222C93.5345 151.4 93.4039 151.562 93.2513 151.7L92.7488 152.21C91.6566 152.576 90.9657 152.789 90.9657 152.789L91.7404 137.882C91.4233 139.9 90.9258 141.886 90.2539 143.814C90.5156 141.218 91.3984 137.453 91.4333 135.928C91.4928 133.741 91.8725 131.575 92.5604 129.498C93.1222 129.892 93.3071 130.625 93.4118 131.298C93.8235 133.915 93.6839 136.63 94.4586 139.163C94.9645 140.821 95.8543 142.391 95.9695 144.125C96.0846 145.859 95.3937 147.531 94.5563 149.048Z" fill="#25233A"/>
<path d="M94.0323 140.73L91.1954 143.455C91.0488 143.596 90.8601 143.685 90.6581 143.71L73.5847 145.803C73.3661 145.832 73.1444 145.782 72.9592 145.662C72.7739 145.543 72.637 145.362 72.5728 145.151L68.6542 132.397C68.6146 132.265 68.6043 132.126 68.624 131.99C68.6438 131.853 68.6931 131.723 68.7685 131.607C68.844 131.492 68.9438 131.395 69.0608 131.322C69.1779 131.249 69.3095 131.203 69.4463 131.186L85.288 129.382C85.5052 129.357 85.7244 129.409 85.9074 129.529C86.0904 129.649 86.2255 129.829 86.2894 130.038L88.875 138.451C88.9936 138.845 89.0913 139.114 89.0913 139.114H93.3902C93.5768 139.116 93.7586 139.173 93.9125 139.278C94.0664 139.384 94.1854 139.533 94.2543 139.706C94.3232 139.879 94.3389 140.069 94.2994 140.252C94.2598 140.434 94.1668 140.6 94.0323 140.73Z" fill="#30E985"/>
<path d="M102.24 77.597C102.218 77.4846 102.223 77.3687 102.256 77.2588C102.288 77.149 102.346 77.0484 102.425 76.9655C102.515 76.9089 102.621 76.8825 102.728 76.8901C102.834 76.8976 102.936 76.9386 103.018 77.0073C103.182 77.1447 103.314 77.3177 103.402 77.5133L103.859 78.3403C103.965 78.5705 104.121 78.7743 104.316 78.9369C104.648 79.1184 105.03 79.187 105.404 79.1323L107.268 79.0521C107.348 79.0431 107.429 79.0564 107.502 79.0905C107.551 79.1327 107.589 79.187 107.611 79.2482C107.633 79.3094 107.638 79.3753 107.627 79.4394C107.62 79.7426 107.546 80.0405 107.411 80.3117L105.317 80.3885C104.741 80.4094 103.841 80.6188 103.293 80.4443C102.463 80.1687 102.278 78.3368 102.24 77.597Z" fill="url(#paint1_linear_113_2723)"/>
<path d="M108.102 179.873C107.907 181.049 106.008 186.482 106.008 186.482L104.578 185.554L102.704 184.34C102.704 184.34 106.113 168.742 105.81 167.148C105.506 165.553 103.133 161.432 103.133 161.432L101.507 198.967L97.32 200.583C97.32 200.583 90.5785 160.085 90.9589 152.779L107.418 145.172C107.418 145.172 112.303 159.551 112.889 162.591C113.476 165.63 108.301 178.697 108.102 179.873Z" fill="#30E985"/>
<path d="M101.957 188.513L109.285 193.14C109.285 193.14 110.147 191.723 108.786 189.937C107.425 188.15 105.994 186.482 105.994 186.482L102.683 184.34L101.957 188.513ZM97.3301 200.583C97.3301 200.583 94.9818 204.99 95.8611 207.338C96.7404 209.686 98.7259 206.815 99.8774 205.087C100.854 203.615 101.95 200.583 101.95 200.583L101.507 198.967L97.3301 200.583Z" fill="#3F3D56"/>
<path d="M109.547 165.04L104.578 185.554L102.704 184.34C102.704 184.34 106.113 168.742 105.81 167.148C105.506 165.553 103.133 161.432 103.133 161.432C103.133 161.432 105.066 158.006 105.754 158.738C106.441 159.471 109.547 165.04 109.547 165.04Z" fill="url(#paint2_linear_113_2723)"/>
<path d="M93.7917 151.47L98.1952 200.248L97.3299 200.597C97.3299 200.597 90.5989 159.914 90.9688 152.792L93.7917 151.47Z" fill="url(#paint3_linear_113_2723)"/>
<path d="M93.3832 139.1L90.0788 142.15L88.875 138.451C88.9936 138.846 89.0913 139.114 89.0913 139.114L93.3832 139.1Z" fill="url(#paint4_linear_113_2723)"/>
<path d="M68.6543 132.411L84.3948 130.691C84.6615 130.662 84.9302 130.724 85.1571 130.867C85.3839 131.01 85.5556 131.226 85.6439 131.479L89.9742 143.793L73.5743 145.817L68.6543 132.411Z" fill="url(#paint5_linear_113_2723)"/>
<path d="M98.9072 110.456C98.5024 111.357 99.4411 113.548 99.4411 113.548C99.4411 113.548 100.456 115.491 100.115 117.452C100.115 117.547 100.076 117.644 100.055 117.739C99.5458 119.794 93.0207 117.62 93.2196 114.748C93.4185 111.876 90.2432 104.556 90.2432 104.556C92.1065 96.3314 98.2128 98.9379 98.7572 99.3776C99.3015 99.8173 101.332 106.318 100.777 107.794C100.62 108.222 100.392 108.62 100.104 108.973C99.6504 109.546 99.1724 109.867 98.9072 110.456Z" fill="url(#paint6_linear_113_2723)"/>
<path d="M98.7574 99.3845C98.7574 99.3845 99.6716 97.1094 98.7574 96.2999C97.8432 95.4904 96.3149 95.274 94.5877 95.2008C92.8604 95.1275 92.3196 94.8309 90.9692 96.2999C89.6188 97.7689 89.1652 100.068 88.3278 100.463C87.4903 100.857 86.7576 102.183 87.1972 103.491C87.6369 104.8 88.7395 106.883 88.9593 106.953C89.1792 107.023 90.6866 108.638 90.7598 109.594C90.8331 110.55 92.7767 111.011 92.7767 111.011L92.6685 107.243C92.6685 107.243 92.4487 108.233 91.531 107.389C90.6133 106.545 91.9706 105.554 92.0788 105.592C92.187 105.63 91.032 103.659 91.3984 102.696C91.7648 101.733 93.8688 96.5302 98.7574 99.3845Z" fill="#3F3D56"/>
<path d="M100.115 117.466C100.057 117.613 99.9687 117.746 99.8566 117.857C99.6822 118.004 99.4715 118.1 99.2468 118.137C99.022 118.174 98.7915 118.15 98.5795 118.066C98.1592 117.891 97.7906 117.611 97.5082 117.253C96.8687 116.513 96.406 115.637 96.1551 114.692C95.9043 113.746 95.8718 112.756 96.0602 111.796C96.1195 111.446 96.2476 111.112 96.437 110.812C96.8976 110.142 97.7595 109.901 98.5132 109.591C99.2669 109.28 99.8182 108.774 100.104 108.987C99.6507 109.552 99.1727 109.873 98.9075 110.463C98.5027 111.363 99.4413 113.555 99.4413 113.555C99.4413 113.555 100.457 115.491 100.115 117.466Z" fill="url(#paint7_linear_113_2723)"/>
<path d="M134.475 100.543C133.777 103.683 135.675 107.173 138.683 108.272C141.213 109.197 144.011 108.523 146.708 108.527C151.426 108.527 155.91 110.662 160.617 110.969C163.733 111.168 166.849 110.568 169.668 109.225C171.298 108.446 172.864 107.414 174.654 107.187C176.155 106.995 177.722 107.393 179.173 106.96C181.64 106.227 182.872 103.09 181.982 100.679C181.092 98.268 178.549 96.7222 175.984 96.4919C173.493 96.2825 170.917 97.1339 168.524 96.4151C165.847 95.6126 164.012 93.0235 161.353 92.1581C157.459 90.895 153.519 93.6795 150.369 96.2965C150.032 95.3518 149.42 94.5298 148.611 93.9364C147.802 93.3431 146.835 93.0056 145.832 92.9676C143.774 92.9258 141.739 94.6356 139.869 95.4102C137.378 96.4779 135.138 97.6224 134.475 100.543Z" fill="#30E985"/>
<path d="M134.475 100.543C133.777 103.683 135.675 107.173 138.683 108.272C141.213 109.197 144.011 108.523 146.708 108.527C151.426 108.527 155.91 110.662 160.617 110.969C163.733 111.168 166.849 110.568 169.668 109.225C171.298 108.446 172.864 107.414 174.654 107.187C176.155 106.995 177.722 107.393 179.173 106.96C181.64 106.227 182.872 103.09 181.982 100.679C181.092 98.268 178.549 96.7222 175.984 96.4919C173.493 96.2825 170.917 97.1339 168.524 96.4151C165.847 95.6126 164.012 93.0235 161.353 92.1581C157.459 90.895 153.519 93.6795 150.369 96.2965C150.032 95.3518 149.42 94.5298 148.611 93.9364C147.802 93.3431 146.835 93.0056 145.832 92.9676C143.774 92.9258 141.739 94.6356 139.869 95.4102C137.378 96.4779 135.138 97.6224 134.475 100.543Z" fill="url(#paint8_linear_113_2723)"/>
<path d="M13.8545 105.714C13.1566 108.855 15.0548 112.344 18.0661 113.443C20.5959 114.368 23.3909 113.691 26.0916 113.698C30.8057 113.698 35.2895 115.83 39.9967 116.14C43.1143 116.34 46.2312 115.739 49.0515 114.396C50.6811 113.621 52.2443 112.585 54.0378 112.358C55.5382 112.17 57.1049 112.567 58.5565 112.135C61.02 111.402 62.2552 108.261 61.3654 105.854C60.4757 103.446 57.9284 101.893 55.3673 101.667C52.8759 101.454 50.3007 102.305 47.907 101.59C45.2272 100.787 43.3918 98.1947 40.7364 97.3328C36.8423 96.0662 32.9028 98.8542 29.752 101.468C29.4146 100.524 28.8021 99.7024 27.9936 99.1097C27.1851 98.517 26.2176 98.1801 25.2158 98.1424C23.1571 98.1005 21.1228 99.8068 19.2525 100.585C16.7576 101.649 14.5244 102.811 13.8545 105.714Z" fill="#30E985"/>
<path d="M13.8545 105.714C13.1566 108.855 15.0548 112.344 18.0661 113.443C20.5959 114.368 23.3909 113.691 26.0916 113.698C30.8057 113.698 35.2896 115.83 39.9967 116.14C43.1143 116.34 46.2312 115.739 49.0515 114.396C50.6811 113.621 52.2443 112.585 54.0378 112.358C55.5382 112.17 57.1049 112.567 58.5565 112.135C61.02 111.402 62.2552 108.261 61.3654 105.854C60.4757 103.446 57.9284 101.893 55.3673 101.667C52.8759 101.454 50.3007 102.305 47.907 101.59C45.2272 100.787 43.3918 98.1947 40.7364 97.3328C36.8423 96.0662 32.9028 98.8542 29.752 101.468C29.4146 100.524 28.8021 99.7024 27.9936 99.1097C27.1851 98.517 26.2176 98.1801 25.2158 98.1424C23.1571 98.1005 21.1228 99.8068 19.2525 100.585C16.7576 101.649 14.5244 102.811 13.8545 105.714Z" fill="url(#paint9_linear_113_2723)"/>
<path d="M79.3215 145.782C79.6763 145.854 80.0406 145.867 80.3997 145.821L82.3433 145.685C82.594 145.676 82.8426 145.635 83.083 145.563C83.2964 145.484 83.4874 145.355 83.6395 145.186C83.7915 145.017 83.8999 144.813 83.9553 144.593C83.9746 144.528 83.9746 144.459 83.9553 144.394C83.889 144.195 83.6064 144.209 83.4215 144.327C83.2365 144.446 83.1109 144.631 82.905 144.676C82.7942 144.686 82.6826 144.673 82.577 144.638L81.4779 144.359C81.4162 144.338 81.3507 144.331 81.286 144.338C81.0452 144.376 81.0243 144.711 81.0627 144.952C80.9885 144.853 80.8933 144.773 80.7841 144.715C80.6749 144.658 80.5543 144.626 80.4311 144.62C80.3074 144.621 80.189 144.671 80.1015 144.758C80.014 144.846 79.9644 144.964 79.9635 145.088L79.5308 144.739C79.4715 144.694 79.3913 144.645 79.325 144.683C79.2932 144.709 79.2711 144.745 79.2622 144.784L79.1156 145.158C79.154 145.06 78.5643 144.809 78.5259 145.158C78.505 145.458 79.1226 145.73 79.3215 145.782Z" fill="url(#paint10_linear_113_2723)"/>
</g>
<defs>
<linearGradient id="paint0_linear_113_2723" x1="134.474" y1="75.0079" x2="130.032" y2="91.7917" gradientUnits="userSpaceOnUse">
<stop stop-color="white" stop-opacity="0"/>
<stop offset="0.06" stop-color="white" stop-opacity="0.13"/>
<stop offset="0.16" stop-color="white" stop-opacity="0.33"/>
<stop offset="0.26" stop-color="white" stop-opacity="0.51"/>
<stop offset="0.37" stop-color="white" stop-opacity="0.66"/>
<stop offset="0.48" stop-color="white" stop-opacity="0.79"/>
<stop offset="0.59" stop-color="white" stop-opacity="0.88"/>
<stop offset="0.71" stop-color="white" stop-opacity="0.95"/>
<stop offset="0.84" stop-color="white" stop-opacity="0.99"/>
<stop offset="1" stop-color="white"/>
</linearGradient>
<linearGradient id="paint1_linear_113_2723" x1="102.236" y1="78.6962" x2="107.627" y2="78.6962" gradientUnits="userSpaceOnUse">
<stop stop-color="#ECC4D7"/>
<stop offset="0.42" stop-color="#EFD4D1"/>
<stop offset="1" stop-color="#F2EAC9"/>
</linearGradient>
<linearGradient id="paint2_linear_113_2723" x1="117.67" y1="166.282" x2="50.6012" y2="196.982" gradientUnits="userSpaceOnUse">
<stop stop-opacity="0.07"/>
<stop offset="0.08" stop-opacity="0.25"/>
<stop offset="1"/>
</linearGradient>
<linearGradient id="paint3_linear_113_2723" x1="86.3105" y1="177.364" x2="153.969" y2="167.587" gradientUnits="userSpaceOnUse">
<stop stop-opacity="0.07"/>
<stop offset="0.08" stop-opacity="0.25"/>
<stop offset="1"/>
</linearGradient>
<linearGradient id="paint4_linear_113_2723" x1="92.811" y1="137.425" x2="76.3622" y2="151.624" gradientUnits="userSpaceOnUse">
<stop stop-opacity="0.07"/>
<stop offset="0.08" stop-opacity="0.25"/>
<stop offset="1"/>
</linearGradient>
<linearGradient id="paint5_linear_113_2723" x1="80.5774" y1="143.807" x2="86.2162" y2="169.29" gradientUnits="userSpaceOnUse">
<stop stop-opacity="0.07"/>
<stop offset="0.52" stop-opacity="0.83"/>
<stop offset="0.56" stop-opacity="0.87"/>
<stop offset="1"/>
</linearGradient>
<linearGradient id="paint6_linear_113_2723" x1="90.2432" y1="108.6" x2="100.872" y2="108.6" gradientUnits="userSpaceOnUse">
<stop stop-color="#ECC4D7"/>
<stop offset="0.42" stop-color="#EFD4D1"/>
<stop offset="1" stop-color="#F2EAC9"/>
</linearGradient>
<linearGradient id="paint7_linear_113_2723" x1="95.5856" y1="108.188" x2="111.466" y2="132.767" gradientUnits="userSpaceOnUse">
<stop stop-color="#ECC4D7"/>
<stop offset="0.42" stop-color="#EFD4D1"/>
<stop offset="1" stop-color="#F2EAC9"/>
</linearGradient>
<linearGradient id="paint8_linear_113_2723" x1="160.387" y1="90.9682" x2="155.121" y2="118.942" gradientUnits="userSpaceOnUse">
<stop offset="0.02" stop-color="white" stop-opacity="0"/>
<stop offset="0.06" stop-color="white" stop-opacity="0.13"/>
<stop offset="0.13" stop-color="white" stop-opacity="0.33"/>
<stop offset="0.2" stop-color="white" stop-opacity="0.51"/>
<stop offset="0.27" stop-color="white" stop-opacity="0.66"/>
<stop offset="0.35" stop-color="white" stop-opacity="0.79"/>
<stop offset="0.43" stop-color="white" stop-opacity="0.88"/>
<stop offset="0.51" stop-color="white" stop-opacity="0.95"/>
<stop offset="0.6" stop-color="white" stop-opacity="0.99"/>
<stop offset="0.71" stop-color="white"/>
</linearGradient>
<linearGradient id="paint9_linear_113_2723" x1="37.5262" y1="95.0648" x2="37.8682" y2="120.998" gradientUnits="userSpaceOnUse">
<stop stop-color="white" stop-opacity="0"/>
<stop offset="0.06" stop-color="white" stop-opacity="0.13"/>
<stop offset="0.16" stop-color="white" stop-opacity="0.33"/>
<stop offset="0.26" stop-color="white" stop-opacity="0.51"/>
<stop offset="0.37" stop-color="white" stop-opacity="0.66"/>
<stop offset="0.48" stop-color="white" stop-opacity="0.79"/>
<stop offset="0.59" stop-color="white" stop-opacity="0.88"/>
<stop offset="0.71" stop-color="white" stop-opacity="0.95"/>
<stop offset="0.84" stop-color="white" stop-opacity="0.99"/>
<stop offset="1" stop-color="white"/>
</linearGradient>
<linearGradient id="paint10_linear_113_2723" x1="78.5329" y1="145.043" x2="83.9728" y2="145.043" gradientUnits="userSpaceOnUse">
<stop stop-color="#ECC4D7"/>
<stop offset="0.42" stop-color="#EFD4D1"/>
<stop offset="1" stop-color="#F2EAC9"/>
</linearGradient>
<clipPath id="clip0_113_2723">
<rect width="180.57" height="208" fill="white" transform="translate(13.7148 0.224243)"/>
</clipPath>
</defs>
</svg>
