<svg width="29" height="30" viewBox="0 0 29 30" fill="none" xmlns="http://www.w3.org/2000/svg">
<g clip-path="url(#clip0_69_2166)">
<path d="M14.5003 3.16663C21.1739 3.16663 26.5837 8.57633 26.5837 15.25C26.5837 21.9236 21.1739 27.3333 14.5003 27.3333C7.8267 27.3333 2.41699 21.9236 2.41699 15.25C2.41699 8.57633 7.8267 3.16663 14.5003 3.16663ZM14.5003 5.58329C11.9366 5.58329 9.47781 6.60174 7.66496 8.41459C5.85211 10.2274 4.83366 12.6862 4.83366 15.25C4.83366 17.8137 5.85211 20.2725 7.66496 22.0853C9.47781 23.8982 11.9366 24.9166 14.5003 24.9166C17.0641 24.9166 19.5228 23.8982 21.3357 22.0853C23.1485 20.2725 24.167 17.8137 24.167 15.25C24.167 12.6862 23.1485 10.2274 21.3357 8.41459C19.5228 6.60174 17.0641 5.58329 14.5003 5.58329ZM14.5003 7.99996C14.7963 8 15.0819 8.10866 15.3031 8.30532C15.5243 8.50199 15.6656 8.77299 15.7002 9.06692L15.7087 9.20829V14.7497L18.9796 18.0207C19.1963 18.2381 19.3221 18.5299 19.3315 18.8368C19.3409 19.1436 19.2331 19.4425 19.0301 19.6728C18.827 19.9031 18.544 20.0474 18.2383 20.0765C17.9327 20.1056 17.6275 20.0173 17.3846 19.8295L17.271 19.7292L13.646 16.1042C13.4582 15.9163 13.3376 15.6717 13.3029 15.4082L13.292 15.25V9.20829C13.292 8.88782 13.4193 8.58048 13.6459 8.35387C13.8725 8.12727 14.1799 7.99996 14.5003 7.99996Z" fill="#3085E9"/>
</g>
<defs>
<clipPath id="clip0_69_2166">
<rect width="29" height="29" fill="white" transform="translate(0 0.75)"/>
</clipPath>
</defs>
</svg>
