<svg width="13" height="13" viewBox="0 0 13 13" fill="none" xmlns="http://www.w3.org/2000/svg">
<path d="M11.7583 12.75L7.29583 8.2875C6.94167 8.57083 6.53438 8.79514 6.07396 8.96042C5.61354 9.12569 5.12361 9.20833 4.60417 9.20833C3.31736 9.20833 2.22842 8.76256 1.33733 7.871C0.44625 6.97944 0.000472597 5.8905 3.7478e-07 4.60417C-0.000471847 3.31783 0.445306 2.22889 1.33733 1.33733C2.22936 0.445778 3.31831 0 4.60417 0C5.89003 0 6.97921 0.445778 7.87171 1.33733C8.76421 2.22889 9.20975 3.31783 9.20833 4.60417C9.20833 5.12361 9.12569 5.61354 8.96042 6.07396C8.79514 6.53437 8.57083 6.94167 8.2875 7.29583L12.75 11.7583L11.7583 12.75ZM4.60417 7.79167C5.48958 7.79167 6.24231 7.48189 6.86233 6.86233C7.48236 6.24278 7.79214 5.49006 7.79167 4.60417C7.79119 3.71828 7.48142 2.96579 6.86233 2.34671C6.24325 1.72763 5.49053 1.41761 4.60417 1.41667C3.71781 1.41572 2.96532 1.72574 2.34671 2.34671C1.7281 2.96768 1.41808 3.72017 1.41667 4.60417C1.41525 5.48817 1.72526 6.24089 2.34671 6.86233C2.96815 7.48378 3.72064 7.79356 4.60417 7.79167Z" fill="#808383"/>
</svg>
