<svg width="22" height="22" viewBox="0 0 22 22" fill="none" xmlns="http://www.w3.org/2000/svg">
<path fill-rule="evenodd" clip-rule="evenodd" d="M3.20801 8.77067V13.2293C3.20801 15.3322 3.20801 16.3827 3.86984 17.0362C4.47026 17.6293 5.40434 17.6834 7.16617 17.6889C7.07359 17.0702 7.05434 16.3322 7.04884 15.4632C7.04884 15.3748 7.06627 15.2872 7.10014 15.2056C7.13402 15.1239 7.18366 15.0497 7.24623 14.9872C7.30881 14.9247 7.38309 14.8751 7.46483 14.8414C7.54657 14.8076 7.63416 14.7903 7.72259 14.7904C7.81107 14.7893 7.8989 14.8057 7.98106 14.8385C8.06322 14.8714 8.1381 14.9201 8.20143 14.9819C8.26477 15.0437 8.3153 15.1174 8.35016 15.1987C8.38502 15.28 8.40351 15.3674 8.40459 15.4559C8.41009 16.4313 8.43484 17.1224 8.53292 17.6467C8.62734 18.1527 8.77767 18.4442 8.99767 18.6624C9.24792 18.9099 9.59901 19.0703 10.2627 19.1574C10.9447 19.2491 11.8485 19.25 13.1456 19.25H14.0485C15.3456 19.25 16.2494 19.2482 16.9323 19.1583C17.5951 19.0703 17.9462 18.909 18.1955 18.6624C18.4458 18.4149 18.6089 18.0684 18.6978 17.4139C18.7895 16.7411 18.7913 15.8473 18.7913 14.5677V7.43233C18.7913 6.15175 18.7895 5.25983 18.6978 4.58608C18.6089 3.93158 18.4458 3.58417 18.1964 3.33758C17.9462 3.09008 17.5951 2.92967 16.9314 2.84258C16.2503 2.75 15.3465 2.75 14.0494 2.75H13.1465C11.8494 2.75 10.9456 2.75183 10.2627 2.84167C9.59992 2.92967 9.24884 3.091 8.99859 3.33758C8.77859 3.55483 8.62826 3.84725 8.53384 4.35325C8.43576 4.87758 8.41101 5.56875 8.40551 6.54408C8.40443 6.63256 8.38594 6.71997 8.35108 6.8013C8.31622 6.88263 8.26568 6.9563 8.20235 7.0181C8.13902 7.07989 8.06414 7.12861 7.98198 7.16147C7.89982 7.19432 7.81199 7.21067 7.72351 7.20958C7.63507 7.2097 7.54748 7.19239 7.46574 7.15863C7.38401 7.12487 7.30973 7.07533 7.24715 7.01284C7.18457 6.95035 7.13493 6.87614 7.10106 6.79444C7.06719 6.71275 7.04976 6.62519 7.04976 6.53675C7.05526 5.66775 7.07451 4.92983 7.16709 4.31108C5.40526 4.31658 4.47209 4.37067 3.87076 4.96375C3.20892 5.61733 3.20801 6.66875 3.20801 8.77067ZM5.44009 11.473C5.37723 11.4113 5.3273 11.3377 5.29321 11.2565C5.25913 11.1753 5.24157 11.0881 5.24157 11C5.24157 10.9119 5.25913 10.8247 5.29321 10.7435C5.3273 10.6623 5.37723 10.5887 5.44009 10.527L7.24592 8.74317C7.37382 8.61743 7.54599 8.54697 7.72534 8.54697C7.90469 8.54697 8.07686 8.61743 8.20476 8.74317C8.26762 8.80486 8.31755 8.87847 8.35164 8.95968C8.38572 9.0409 8.40328 9.12809 8.40328 9.21617C8.40328 9.30424 8.38572 9.39144 8.35164 9.47265C8.31755 9.55387 8.26762 9.62747 8.20476 9.68917L7.55392 10.3308H14.0494C14.4234 10.3308 14.7278 10.6306 14.7278 11C14.7278 11.3694 14.4234 11.6692 14.0494 11.6692H7.55301L8.20384 12.3108C8.2667 12.3725 8.31663 12.4461 8.35072 12.5273C8.38481 12.6086 8.40236 12.6958 8.40236 12.7838C8.40236 12.8719 8.38481 12.9591 8.35072 13.0403C8.31663 13.1215 8.2667 13.1951 8.20384 13.2568C8.07595 13.3826 7.90378 13.453 7.72442 13.453C7.54507 13.453 7.3729 13.3826 7.24501 13.2568L5.44009 11.473Z" fill="#FF575F"/>
</svg>
