<svg width="208" height="209" viewBox="0 0 208 209" fill="none" xmlns="http://www.w3.org/2000/svg">
<path d="M199.334 205.335H10.2076C8.93648 205.335 7.89648 204.295 7.89648 203.024V193.972C7.89648 192.701 8.93648 191.661 10.2076 191.661H199.334C200.605 191.661 201.645 192.701 201.645 193.972V203.024C201.645 204.295 200.605 205.335 199.334 205.335Z" fill="#F7F7F7"/>
<path d="M106.311 194.935C141.838 194.935 170.637 166.136 170.637 130.609C170.637 95.0831 141.838 66.2834 106.311 66.2834C70.785 66.2834 41.9854 95.0831 41.9854 130.609C41.9854 166.136 70.785 194.935 106.311 194.935Z" fill="#F3FAFF"/>
<path d="M186.045 176.042C187.412 172.556 188.799 168.685 187.508 165.18C187.2 164.332 186.719 163.427 187.008 162.56C187.393 161.386 188.934 160.981 189.434 159.864C190.012 158.632 189.107 157.206 189.338 155.878C189.569 154.529 190.898 153.643 192.188 153.162C193.479 152.68 194.885 152.372 195.925 151.486C197.908 149.753 197.677 146.652 197.234 144.033C196.791 141.433 196.464 138.352 198.371 136.522C194.865 137.196 191.283 137.889 188.24 139.738C185.197 141.587 182.771 144.861 182.944 148.424C183.04 150.215 183.734 152.122 182.925 153.701C182.039 155.415 179.67 156.089 179.073 157.919C178.38 160.018 180.44 161.944 181.249 164.005C182.02 165.95 181.654 168.126 181.827 170.187C182 172.267 183.079 174.617 185.14 174.925L186.045 176.042Z" fill="#30E985"/>
<path opacity="0.31" d="M186.045 176.042C187.412 172.556 188.799 168.685 187.508 165.18C187.2 164.332 186.719 163.427 187.008 162.56C187.393 161.386 188.934 160.981 189.434 159.864C190.012 158.632 189.107 157.206 189.338 155.878C189.569 154.529 190.898 153.643 192.188 153.162C193.479 152.68 194.885 152.372 195.925 151.486C197.908 149.753 197.677 146.652 197.234 144.033C196.791 141.433 196.464 138.352 198.371 136.522C194.865 137.196 191.283 137.889 188.24 139.738C185.197 141.587 182.771 144.861 182.944 148.424C183.04 150.215 183.734 152.122 182.925 153.701C182.039 155.415 179.67 156.089 179.073 157.919C178.38 160.018 180.44 161.944 181.249 164.005C182.02 165.95 181.654 168.126 181.827 170.187C182 172.267 183.079 174.617 185.14 174.925L186.045 176.042Z" fill="white"/>
<path d="M184.638 171.478C184.6 161.347 186.564 140.143 198.255 136.599" stroke="white" stroke-width="0.75" stroke-miterlimit="10" stroke-linecap="round"/>
<path d="M177.898 175.195C175.818 171.304 173.661 166.971 174.682 162.676C174.932 161.636 175.356 160.519 174.913 159.537C174.316 158.227 172.448 157.938 171.697 156.706C170.868 155.358 171.716 153.547 171.254 152.026C170.791 150.466 169.116 149.638 167.556 149.233C165.996 148.848 164.301 148.694 162.953 147.769C160.391 146.017 160.237 142.338 160.391 139.238C160.545 136.137 160.507 132.478 158.022 130.609C162.221 130.918 166.516 131.245 170.329 132.998C174.142 134.75 177.455 138.255 177.725 142.454C177.859 144.553 177.301 146.883 178.476 148.636C179.747 150.523 182.617 150.986 183.58 153.046C184.677 155.415 182.539 157.938 181.865 160.461C181.249 162.83 181.962 165.334 182.039 167.78C182.116 170.226 181.172 173.134 178.803 173.789L177.898 175.195Z" fill="#30E985"/>
<path d="M178.919 169.648C177.571 157.765 172.371 133.209 158.177 130.687" stroke="white" stroke-width="0.75" stroke-miterlimit="10" stroke-linecap="round"/>
<path d="M191.051 198.017H172.755C171.484 198.017 170.444 196.977 170.444 195.706L168.903 169.321C168.903 168.049 169.943 167.009 171.214 167.009H192.592C193.863 167.009 194.903 168.049 194.903 169.321L193.363 195.706C193.363 196.977 192.323 198.017 191.051 198.017Z" fill="#CCE9FF"/>
<path d="M25.1416 114.22L36.9474 112.43L44.974 165.366L33.1682 167.156L25.1416 114.22Z" fill="#30E985"/>
<path d="M31.041 113.331L36.9439 112.436L44.9705 165.371L39.0676 166.266L31.041 113.331Z" fill="#30E985"/>
<path d="M36.9583 112.487L25.1523 114.278L27.9257 107.171L29.5049 103.165L32.2012 106.535L36.9583 112.487Z" fill="#FFEBC2"/>
<path d="M32.2013 106.535L27.9258 107.171L29.505 103.165L32.2013 106.535Z" fill="#0E538C"/>
<path d="M46.4375 100.311L58.3305 101.376L53.5552 154.703L41.6622 153.638L46.4375 100.311Z" fill="#30E985"/>
<path d="M52.3945 100.848L58.341 101.38L53.5657 154.707L47.6192 154.174L52.3945 100.848Z" fill="#30E985"/>
<path d="M58.3358 101.432L46.4336 100.372L50.8247 94.1324L53.3091 90.6079L55.1195 94.5175L58.3358 101.432Z" fill="#FFEBC2"/>
<path d="M55.12 94.5175L50.8252 94.1324L53.3096 90.6079L55.12 94.5175Z" fill="#0E538C"/>
<path d="M66.1559 198.209H19.2404L13.0967 125.602H69.9115L66.1559 198.209Z" fill="#CCE9FF"/>
<path opacity="0.5" d="M41.5039 198.209H66.1558L69.9113 125.602H41.5039V198.209Z" fill="#CCE9FF"/>
<path d="M51.8076 177.718H171.022V194.107H51.8076V177.718Z" fill="#FFEBC2"/>
<path d="M52.308 177.718V194.107H177.378V195.34C177.378 196.861 176.049 198.094 174.412 198.094H52.8473C48.9762 198.094 45.8369 195.205 45.8369 191.623V180.664C45.8369 177.082 48.9762 174.193 52.8473 174.193H174.412C176.049 174.193 177.378 175.426 177.378 176.947V177.737H52.308V177.718Z" fill="#30E985"/>
<path d="M51.8076 185.017H171.022V194.088H51.8076V185.017Z" fill="#FFEBC2"/>
<path d="M67.2148 157.765H164.089V172.017H67.2148V157.765Z" fill="#CCE9FF"/>
<path d="M67.2146 157.765V172.017H167.748V173.095C167.748 174.424 166.669 175.484 165.36 175.484H67.6384C64.5376 175.484 62.0146 172.961 62.0146 169.86V160.326C62.0146 157.226 64.5376 154.703 67.6384 154.703H165.36C166.669 154.703 167.748 155.781 167.748 157.091V157.784H67.2146V157.765Z" fill="#2A94F4"/>
<path d="M109.084 109.251C107.755 107.498 107.64 105.091 108.891 103.261C109.893 101.798 110.567 99.9872 110.49 98.6583C110.336 96.2702 108.853 94.0746 106.831 92.765C104.173 91.0317 100.629 90.7813 97.7596 92.1294C94.8899 93.4776 92.8099 96.3665 92.444 99.5057C92.1744 101.759 92.6944 104.224 91.5388 106.189C90.6914 107.595 89.1314 108.423 87.5907 108.981C86.0307 109.521 84.3936 109.886 82.9685 110.715C81.5433 111.543 80.3299 112.968 80.3492 114.624C80.3685 115.876 81.081 117.032 81.1581 118.264C81.2736 120.075 80.0025 121.673 78.6544 122.867C77.287 124.061 75.727 125.101 74.8025 126.661C73.281 129.242 73.9936 132.728 75.9196 135.039C77.8455 137.35 80.7344 138.641 83.6233 139.392C91.5196 141.472 99.8396 140.124 107.986 139.989C110.509 139.95 113.09 140.027 115.536 139.392C117.982 138.756 120.37 137.292 121.391 134.981C122.431 132.67 121.911 129.858 120.524 127.759C119.137 125.66 116.961 124.138 114.669 123.06C113.013 122.27 111.241 121.654 109.893 120.421C108.545 119.189 107.755 117.089 108.66 115.491C109.007 114.875 109.585 114.393 109.912 113.777C110.567 112.583 110.297 111.061 109.565 109.906C109.431 109.713 109.277 109.501 109.084 109.251Z" fill="#0E538C"/>
<path d="M67.2148 164.121H164.089V172.017H67.2148V164.121Z" fill="#CCE9FF"/>
<path d="M110.934 143.898L122.874 152.372L137.511 182.609H134.815L118.445 155.839C118.445 155.839 112.86 156.032 110.934 154.298C109.008 152.565 97.9336 145.054 97.9336 145.054L110.934 143.898Z" fill="#0B4870"/>
<path d="M89.8059 141.472C87.6296 147.365 89.1703 155.646 96.4888 156.032C103.807 156.417 106.118 156.032 106.118 156.032L120.37 184.921H123.644L112.474 152.565L98.8962 145.054L89.8059 141.472Z" fill="#0E538C"/>
<path d="M100.918 107.884C102.844 110.387 107.466 117.321 109.2 125.024C110.933 132.728 115.748 143.898 115.748 143.898H110.163L104.77 125.602L99.7627 108.461L100.918 107.884Z" fill="#4EA3FB"/>
<path d="M106.851 97.6568C107.14 102.375 105.079 105.611 102.132 105.765C99.1856 105.919 97.2597 101.643 98.1456 97.6568C100.206 94.1131 103.018 93.8242 103.018 93.8242H104.79L106.851 97.6568Z" fill="#FFE3CA"/>
<path d="M104.886 94.845C104.347 96.5013 103.153 97.9265 101.612 98.7353C100.071 99.5442 98.2224 99.7368 96.5469 99.2361L100.745 93.2465H104.347L107.794 95.9813L107.274 99.1205C105.926 98.0998 104.886 94.845 104.886 94.845Z" fill="#0E538C"/>
<path d="M101.246 105.207C100.63 107.595 100.822 110.098 100.822 110.484C100.245 111.254 97.5483 111.061 97.1631 108.365C97.7409 104.898 98.8964 101.047 98.8964 101.047L99.8594 103.165L101.246 105.207Z" fill="#FFE3CA"/>
<path d="M97.5485 106.323C95.1411 107.113 87.0522 110.772 86.667 111.543C87.2448 113.661 90.1337 145.054 90.1337 145.054H103.23C103.23 145.054 101.497 127.721 102.46 126.565C103.423 125.409 106.504 121.365 106.119 120.787C105.734 120.209 100.842 107.787 100.842 107.787L97.5485 106.323Z" fill="#2A94F4"/>
<path d="M86.6666 111.543C84.7792 112.987 76.8444 125.987 79.3481 132.921C81.8518 139.854 90.037 143.937 90.037 143.937V140.123C90.037 140.123 83.3926 134.846 83.7777 130.995C84.1629 127.143 88.7851 119.246 88.7851 119.246L86.6666 111.543Z" fill="#4EA3FB"/>
<path d="M117.693 147.269H89.3432C88.4573 147.269 87.7254 146.537 87.7254 145.651L86.9551 127.509C86.9551 126.623 87.6869 125.891 88.5729 125.891H118.078C118.964 125.891 119.696 126.623 119.696 127.509L119.311 145.651C119.311 146.537 118.579 147.269 117.693 147.269Z" fill="#30E985"/>
<path d="M123.182 184.921C125.089 185.344 127.67 187.444 128.902 188.522C129.153 188.734 128.999 189.158 128.652 189.158C126.668 189.119 122.181 188.907 121.141 188.021C119.793 186.866 120.178 184.94 120.178 184.94H123.182V184.921ZM137.473 182.532C139.168 182.995 141.402 184.959 142.519 186.018C142.769 186.249 142.576 186.654 142.249 186.635C140.381 186.5 136.375 186.134 135.47 185.267C134.276 184.15 134.719 182.398 134.719 182.398L137.473 182.532Z" fill="#1A87D8"/>
<path d="M103.422 139.469C105.018 139.469 106.311 138.175 106.311 136.58C106.311 134.984 105.018 133.691 103.422 133.691C101.827 133.691 100.533 134.984 100.533 136.58C100.533 138.175 101.827 139.469 103.422 139.469Z" fill="white"/>
<path d="M78.0002 177.602L74.3409 175.484L70.6816 177.602V164.121H78.0002V177.602ZM134.738 97.7724C134.738 98.1383 134.603 98.4657 134.372 98.7354C134.603 98.9857 134.738 99.3324 134.738 99.6983V100.892C134.738 101.143 134.661 101.393 134.545 101.605C134.661 101.817 134.738 102.067 134.738 102.318V103.512C134.738 104.301 134.102 104.937 133.313 104.937H120.91C120.12 104.937 119.485 104.301 119.485 103.512V102.298C119.485 102.048 119.562 101.798 119.677 101.586C119.562 101.374 119.485 101.124 119.485 100.873V99.6791C119.485 99.3131 119.619 98.9857 119.851 98.7161C119.619 98.4657 119.485 98.1191 119.485 97.7531V96.5591C119.485 95.7694 120.12 95.1339 120.91 95.1339H133.313C134.102 95.1339 134.738 95.7694 134.738 96.5591V97.7724ZM144.637 70.7709C144.637 77.7235 140.593 83.7131 134.738 86.5635V93.0346C134.738 93.5161 134.333 93.9206 133.852 93.9206H120.371C119.889 93.9206 119.485 93.5161 119.485 93.0346V86.5635C113.63 83.7324 109.585 77.7235 109.585 70.7709C109.585 61.0835 117.424 53.245 127.111 53.245C136.799 53.245 144.637 61.1028 144.637 70.7709Z" fill="#30E985"/>
<path opacity="0.23" d="M133.081 98.8317H121.333M133.081 101.528H121.333" stroke="#7F7F7F" stroke-width="2" stroke-miterlimit="10" stroke-linecap="round"/>
<path d="M130.115 72.9279C129.904 72.7353 129.595 72.639 129.268 72.6776C128.864 72.7161 128.478 72.9472 128.228 73.2746C128.016 73.5635 127.901 73.9101 127.843 74.2376C127.669 74.1413 127.477 74.045 127.304 73.9294L127.246 73.8909H126.995L126.938 73.9294C126.745 74.045 126.572 74.1413 126.398 74.2376C126.341 73.9101 126.225 73.5635 126.013 73.2746C125.782 72.9472 125.378 72.7161 124.973 72.6776C124.646 72.639 124.357 72.7353 124.126 72.9279C123.837 73.1976 123.741 73.5827 123.837 73.9872C123.991 74.5264 124.434 74.9694 124.954 75.0657C125.281 75.1235 125.589 75.1042 125.917 75.0272C126.398 81.2864 126.591 87.6227 126.456 93.882H127.034C127.169 87.6035 126.976 81.2479 126.495 74.9887C126.495 74.9309 126.495 74.8731 126.475 74.8153C126.707 74.719 126.918 74.6035 127.13 74.4687C127.342 74.5842 127.554 74.719 127.785 74.8153C127.785 74.8731 127.785 74.9309 127.766 74.9887C127.284 81.2479 127.092 87.6035 127.227 93.882H127.804C127.669 87.6227 127.862 81.2672 128.344 75.0272C128.652 75.1042 128.979 75.1427 129.307 75.0657C129.807 74.9694 130.269 74.5264 130.424 73.9872C130.501 73.5827 130.404 73.1976 130.115 72.9279ZM125.05 74.5264C124.761 74.4687 124.472 74.1798 124.376 73.8524C124.338 73.7176 124.318 73.5057 124.492 73.3709C124.588 73.2746 124.723 73.2553 124.819 73.2553H124.896C125.127 73.2746 125.378 73.4094 125.532 73.6213C125.705 73.8524 125.801 74.1413 125.84 74.4687C125.57 74.5457 125.32 74.565 125.05 74.5264ZM129.846 73.8524C129.749 74.1798 129.48 74.4687 129.172 74.5264C128.921 74.5842 128.652 74.5457 128.401 74.4687C128.459 74.1413 128.536 73.8524 128.709 73.6213C128.844 73.4287 129.095 73.2939 129.345 73.2553C129.461 73.2361 129.615 73.2553 129.749 73.3709C129.884 73.5057 129.865 73.7176 129.846 73.8524Z" fill="white"/>
<path d="M122.489 56.4613C118.252 58.002 111.318 63.5872 111.896 72.6391" stroke="white" stroke-width="4" stroke-miterlimit="10" stroke-linecap="round"/>
<path d="M99.2812 87.8538C101.994 87.8538 104.192 85.6551 104.192 82.9427C104.192 80.2304 101.994 78.0316 99.2812 78.0316C96.5689 78.0316 94.3701 80.2304 94.3701 82.9427C94.3701 85.6551 96.5689 87.8538 99.2812 87.8538Z" fill="#30E985"/>
<path d="M151.859 68.9798C153.083 68.9798 154.074 67.9882 154.074 66.765C154.074 65.5418 153.083 64.5502 151.859 64.5502C150.636 64.5502 149.645 65.5418 149.645 66.765C149.645 67.9882 150.636 68.9798 151.859 68.9798Z" fill="#30E985"/>
<path d="M144.637 105.187C146.658 105.187 148.296 103.549 148.296 101.528C148.296 99.507 146.658 97.8687 144.637 97.8687C142.616 97.8687 140.978 99.507 140.978 101.528C140.978 103.549 142.616 105.187 144.637 105.187Z" fill="#30E985"/>
<path d="M109.585 54.1502C111.606 54.1502 113.244 52.5119 113.244 50.4909C113.244 48.47 111.606 46.8317 109.585 46.8317C107.564 46.8317 105.926 48.47 105.926 50.4909C105.926 52.5119 107.564 54.1502 109.585 54.1502Z" fill="#30E985"/>
<path opacity="0.14" d="M78.0002 177.602L74.3409 175.484L70.6816 177.602V164.121H78.0002V177.602Z" fill="#0C0C0C"/>
</svg>
