<svg width="30" height="30" viewBox="0 0 30 30" fill="none" xmlns="http://www.w3.org/2000/svg">
<path d="M9.34375 25C7.80042 25 6.4825 24.4537 5.39 23.3612C4.2975 22.2687 3.75083 20.9504 3.75 19.4062C3.75 17.8871 4.28083 16.5846 5.3425 15.4988C6.40417 14.4129 7.69458 13.8533 9.21375 13.82C9.37375 13.82 9.53417 13.8321 9.695 13.8563C9.855 13.8804 10.015 13.9083 10.175 13.94L6.0575 5.67375H12.02L15 11.635L17.9813 5.6725H23.9425L19.855 13.8538C20 13.8213 20.1487 13.7971 20.3012 13.7812C20.4529 13.7646 20.6092 13.7563 20.77 13.7563C22.3 13.7954 23.5958 14.3579 24.6575 15.4438C25.7192 16.5296 26.25 17.84 26.25 19.375C26.25 20.9392 25.7037 22.2679 24.6112 23.3612C23.5187 24.4546 22.19 25.0008 20.625 25C20.3892 25 20.1483 24.9867 19.9025 24.96C19.6567 24.9342 19.4242 24.8842 19.205 24.81C20.19 24.3808 20.8813 23.6513 21.2788 22.6213C21.6763 21.5913 21.875 20.5092 21.875 19.375C21.875 17.4567 21.2087 15.8313 19.8762 14.4988C18.5437 13.1663 16.9183 12.5 15 12.5C13.0817 12.5 11.4563 13.1663 10.1237 14.4988C8.79125 15.8313 8.125 17.4567 8.125 19.375C8.125 20.5192 8.30833 21.62 8.675 22.6775C9.04167 23.7358 9.74583 24.4467 10.7875 24.81C10.5525 24.8842 10.3162 24.9342 10.0787 24.96C9.84125 24.9858 9.59625 24.9992 9.34375 25ZM15 25C13.4375 25 12.1096 24.4533 11.0162 23.36C9.92292 22.2667 9.37583 20.9383 9.375 19.375C9.37417 17.8117 9.92125 16.4838 11.0162 15.3913C12.1112 14.2987 13.4392 13.7517 15 13.75C16.5608 13.7483 17.8892 14.2954 18.985 15.3913C20.0808 16.4871 20.6275 17.815 20.625 19.375C20.6225 20.935 20.0758 22.2633 18.985 23.36C17.8942 24.4567 16.5658 25.0033 15 25ZM13.0487 22.2362L15 20.75L16.9525 22.2362L16.2213 19.8238L18.1737 18.4325H15.7613L15 15.89L14.2375 18.4325H11.8275L13.78 19.825L13.0487 22.2362Z" fill="#7B7B7B"/>
</svg>
