<svg width="30" height="30" viewBox="0 0 30 30" fill="none" xmlns="http://www.w3.org/2000/svg">
<path d="M25.0005 2.50875H16.1417C15.4787 2.50889 14.843 2.77238 14.3742 3.24125L3.24173 14.3738C2.77305 14.8426 2.50977 15.4783 2.50977 16.1413C2.50977 16.8042 2.77305 17.4399 3.24173 17.9088L12.0992 26.7663C12.5681 27.2349 13.2038 27.4982 13.8667 27.4982C14.5296 27.4982 15.1654 27.2349 15.6342 26.7663L26.7667 15.6338C27.2367 15.1663 27.5005 14.53 27.5005 13.8675V5.00875C27.5005 4.34571 27.2371 3.70983 26.7682 3.24098C26.2994 2.77214 25.6635 2.50875 25.0005 2.50875ZM21.2592 11.25C20.9263 11.2575 20.5952 11.1985 20.2855 11.0763C19.9757 10.9541 19.6934 10.7713 19.4553 10.5385C19.2171 10.3057 19.0279 10.0277 18.8986 9.72082C18.7694 9.41391 18.7028 9.08427 18.7027 8.75127C18.7026 8.41826 18.7691 8.08859 18.8982 7.78161C19.0272 7.47464 19.2163 7.19654 19.4544 6.96366C19.6924 6.73077 19.9746 6.54779 20.2843 6.42545C20.594 6.30312 20.9251 6.24389 21.258 6.25125C21.9112 6.2657 22.5328 6.53528 22.9897 7.0023C23.4466 7.46932 23.7025 8.09665 23.7027 8.75001C23.7029 9.40338 23.4473 10.0308 22.9906 10.4981C22.5339 10.9653 21.9124 11.2352 21.2592 11.25Z" fill="#7B7B7B"/>
</svg>
