<svg width="20" height="21" viewBox="0 0 20 21" fill="none" xmlns="http://www.w3.org/2000/svg">
<path d="M15.2502 5.25834C15.1731 5.18108 15.0815 5.11979 14.9807 5.07798C14.8799 5.03616 14.7718 5.01463 14.6627 5.01463C14.5535 5.01463 14.4455 5.03616 14.3447 5.07798C14.2439 5.11979 14.1523 5.18108 14.0752 5.25834L10.0002 9.325L5.92519 5.25C5.84803 5.17285 5.75644 5.11165 5.65564 5.0699C5.55484 5.02814 5.4468 5.00665 5.33769 5.00665C5.22858 5.00665 5.12054 5.02814 5.01973 5.0699C4.91893 5.11165 4.82734 5.17285 4.75019 5.25C4.67303 5.32715 4.61183 5.41875 4.57008 5.51955C4.52833 5.62035 4.50684 5.72839 4.50684 5.8375C4.50684 5.94661 4.52833 6.05465 4.57008 6.15546C4.61183 6.25626 4.67303 6.34785 4.75019 6.425L8.82519 10.5L4.75019 14.575C4.67303 14.6522 4.61183 14.7437 4.57008 14.8446C4.52833 14.9454 4.50684 15.0534 4.50684 15.1625C4.50684 15.2716 4.52833 15.3797 4.57008 15.4805C4.61183 15.5813 4.67303 15.6729 4.75019 15.75C4.82734 15.8272 4.91893 15.8884 5.01973 15.9301C5.12054 15.9719 5.22858 15.9934 5.33769 15.9934C5.4468 15.9934 5.55484 15.9719 5.65564 15.9301C5.75644 15.8884 5.84803 15.8272 5.92519 15.75L10.0002 11.675L14.0752 15.75C14.1523 15.8272 14.2439 15.8884 14.3447 15.9301C14.4455 15.9719 14.5536 15.9934 14.6627 15.9934C14.7718 15.9934 14.8798 15.9719 14.9806 15.9301C15.0814 15.8884 15.173 15.8272 15.2502 15.75C15.3273 15.6729 15.3885 15.5813 15.4303 15.4805C15.472 15.3797 15.4935 15.2716 15.4935 15.1625C15.4935 15.0534 15.472 14.9454 15.4303 14.8446C15.3885 14.7437 15.3273 14.6522 15.2502 14.575L11.1752 10.5L15.2502 6.425C15.5669 6.10834 15.5669 5.575 15.2502 5.25834Z" fill="#1D1D1D"/>
</svg>
