<svg width="15" height="15" viewBox="0 0 15 15" fill="none" xmlns="http://www.w3.org/2000/svg">
<path fill-rule="evenodd" clip-rule="evenodd" d="M5.4026 3C5.5001 3.61425 5.64485 4.19625 5.83385 4.563C5.98235 4.85175 6.27335 5.2185 6.67235 5.61825C6.9461 5.892 7.23635 6.14775 7.50035 6.36525C7.76435 6.14775 8.05535 5.892 8.32835 5.61825C8.72735 5.2185 9.01835 4.85175 9.16685 4.563C9.35585 4.19625 9.49985 3.61425 9.5981 3H5.4026ZM4.9061 1.5C4.2731 1.5 3.7676 2.02275 3.8411 2.652C3.93485 3.459 4.1246 4.5195 4.50035 5.25C5.00435 6.22875 6.16385 7.23225 6.88535 7.79475C7.2491 8.07975 7.7516 8.07975 8.11535 7.79475C8.8376 7.23225 9.9971 6.22875 10.5004 5.25C10.8761 4.52025 11.0659 3.459 11.1604 2.652C11.2331 2.022 10.7276 1.5 10.0946 1.5H4.9061Z" fill="#30E985"/>
<path fill-rule="evenodd" clip-rule="evenodd" d="M9.59774 12C9.50024 11.3858 9.35549 10.8038 9.16649 10.437C9.01799 10.1483 8.72699 9.78077 8.32799 9.38177C8.06394 9.11983 7.78763 8.87055 7.49999 8.63477C7.23599 8.85227 6.94499 9.10802 6.67199 9.38177C6.27299 9.78077 5.98199 10.1483 5.83349 10.437C5.64449 10.8038 5.50049 11.3858 5.40224 12H9.59774ZM10.0942 13.5C10.7272 13.5 11.2327 12.9773 11.1592 12.3488C11.0655 11.541 10.8757 10.4798 10.5 9.75002C9.99599 8.77127 8.83649 7.76777 8.11499 7.20527C7.93968 7.06732 7.72307 6.99231 7.49999 6.99231C7.27691 6.99231 7.0603 7.06732 6.88499 7.20527C6.16274 7.76777 5.00399 8.77127 4.49999 9.75002C4.12424 10.4798 3.93449 11.541 3.83999 12.3488C3.76724 12.9773 4.27274 13.5 4.90574 13.5H10.0942Z" fill="#30E985"/>
<path d="M5.25 11.8125C5.25 11.8125 6.75 10.6875 7.5 10.6875C8.25 10.6875 9.75 11.8125 9.75 11.8125V12.1875H5.25V11.8125Z" fill="#30E985"/>
<path fill-rule="evenodd" clip-rule="evenodd" d="M3 1.875C3 1.67609 3.07902 1.48532 3.21967 1.34467C3.36032 1.20402 3.55109 1.125 3.75 1.125H11.25C11.4489 1.125 11.6397 1.20402 11.7803 1.34467C11.921 1.48532 12 1.67609 12 1.875C12 2.07391 11.921 2.26468 11.7803 2.40533C11.6397 2.54598 11.4489 2.625 11.25 2.625H3.75C3.55109 2.625 3.36032 2.54598 3.21967 2.40533C3.07902 2.26468 3 2.07391 3 1.875ZM3 13.125C3 12.9261 3.07902 12.7353 3.21967 12.5947C3.36032 12.454 3.55109 12.375 3.75 12.375H11.25C11.4489 12.375 11.6397 12.454 11.7803 12.5947C11.921 12.7353 12 12.9261 12 13.125C12 13.3239 11.921 13.5147 11.7803 13.6553C11.6397 13.796 11.4489 13.875 11.25 13.875H3.75C3.55109 13.875 3.36032 13.796 3.21967 13.6553C3.07902 13.5147 3 13.3239 3 13.125Z" fill="#30E985"/>
</svg>
