<svg width="15" height="15" viewBox="0 0 15 15" fill="none" xmlns="http://www.w3.org/2000/svg">
<path d="M5.39063 0.703125C5.39063 0.516645 5.46471 0.337802 5.59657 0.205941C5.72843 0.074079 5.90727 0 6.09375 0L8.90625 0C9.09273 0 9.27158 0.074079 9.40344 0.205941C9.5353 0.337802 9.60938 0.516645 9.60938 0.703125C9.60938 0.889605 9.5353 1.06845 9.40344 1.20031C9.27158 1.33217 9.09273 1.40625 8.90625 1.40625H8.20313V2.34375L8.20219 2.38219C9.39067 2.51242 10.5173 2.97913 11.4497 3.7275L11.4563 3.72187L12.1594 3.01875C12.2453 2.9262 12.3546 2.85854 12.4758 2.8229C12.597 2.78726 12.7255 2.78496 12.8479 2.81625C12.9703 2.84754 13.0819 2.91125 13.1711 3.00067C13.2603 3.0901 13.3237 3.20193 13.3547 3.32437C13.3859 3.44661 13.3837 3.57499 13.3482 3.69606C13.3128 3.81713 13.2454 3.92643 13.1531 4.0125L12.45 4.71563L12.4444 4.72219C13.1881 5.65323 13.6538 6.77533 13.7879 7.95937C13.922 9.1434 13.7191 10.3412 13.2025 11.4151C12.686 12.4889 11.8767 13.395 10.8678 14.0292C9.859 14.6633 8.69161 14.9998 7.5 14.9998C6.3084 14.9998 5.141 14.6633 4.13217 14.0292C3.12333 13.395 2.31405 12.4889 1.79746 11.4151C1.28087 10.3412 1.07797 9.1434 1.21209 7.95937C1.34622 6.77533 1.81193 5.65323 2.55563 4.72219L2.55 4.71563L1.84688 4.0125C1.72253 3.87924 1.65478 3.70289 1.65793 3.52065C1.66108 3.33841 1.73487 3.16451 1.86375 3.03562C1.99264 2.90674 2.16654 2.83295 2.34878 2.8298C2.53102 2.82665 2.70737 2.8944 2.84063 3.01875L3.54375 3.72187L3.55032 3.7275C4.48246 2.9793 5.60873 2.51259 6.79688 2.38219V1.40625H6.09375C5.90727 1.40625 5.72843 1.33217 5.59657 1.20031C5.46471 1.06845 5.39063 0.889605 5.39063 0.703125ZM7.5 13.5938C8.80549 13.5936 10.0575 13.0749 10.9805 12.1517C11.9035 11.2285 12.422 9.97642 12.4219 8.67094C12.4218 7.36545 11.903 6.11348 10.9798 5.19045C10.0566 4.26742 8.80455 3.74894 7.49907 3.74906C6.19358 3.74919 4.94161 4.26791 4.01858 5.19112C3.09555 6.11432 2.57707 7.36639 2.57719 8.67188C2.57732 9.97736 3.09604 11.2293 4.01924 12.1524C4.94245 13.0754 6.19452 13.5939 7.5 13.5938ZM7.86469 7.3125L9.11157 6.06562C9.1764 5.99844 9.25396 5.94484 9.33972 5.90795C9.42549 5.87106 9.51775 5.85162 9.6111 5.85076C9.70446 5.84991 9.79706 5.86766 9.88349 5.90297C9.96991 5.93828 10.0484 5.99045 10.1145 6.05644C10.1805 6.12243 10.2328 6.20091 10.2682 6.2873C10.3036 6.3737 10.3214 6.46627 10.3206 6.55964C10.3199 6.653 10.3005 6.74527 10.2637 6.83107C10.2269 6.91687 10.1734 6.99448 10.1063 7.05938L8.85938 8.30719C8.91477 8.51564 8.92157 8.73402 8.87926 8.94551C8.83694 9.157 8.74664 9.35595 8.61531 9.52704C8.48399 9.69813 8.31513 9.83679 8.12177 9.93233C7.9284 10.0279 7.71569 10.0778 7.5 10.0781C7.30097 10.0764 7.10457 10.0324 6.9238 9.94911C6.74304 9.86578 6.58204 9.74501 6.45147 9.59478C6.32089 9.44455 6.22371 9.2683 6.16637 9.0777C6.10904 8.88709 6.09284 8.68648 6.11886 8.48914C6.14488 8.29181 6.21253 8.10225 6.31732 7.93303C6.4221 7.7638 6.56165 7.61876 6.7267 7.50752C6.89176 7.39628 7.07856 7.32136 7.27474 7.28774C7.47093 7.25412 7.67201 7.26256 7.86469 7.3125Z" fill="#D2D2D2"/>
</svg>
