<svg width="30" height="30" viewBox="0 0 30 30" fill="none" xmlns="http://www.w3.org/2000/svg">
<path d="M20.7998 27.5H9.19975C7.93622 27.4541 6.75921 26.8463 5.99019 25.8427C5.22116 24.8391 4.94046 23.5445 5.22475 22.3125L5.52475 20.8875C5.8698 18.9585 7.52803 17.5409 9.48725 17.5H20.5123C22.4715 17.5409 24.1297 18.9585 24.4748 20.8875L24.7748 22.3125C25.059 23.5445 24.7783 24.8391 24.0093 25.8427C23.2403 26.8463 22.0633 27.4541 20.7998 27.5Z" fill="#7B7B7B"/>
<path d="M15.6248 15H14.3748C11.6133 15 9.37475 12.7614 9.37475 10V6.7C9.37142 5.58508 9.81285 4.51485 10.6012 3.72648C11.3896 2.9381 12.4598 2.49667 13.5748 2.5H16.4248C17.5397 2.49667 18.6099 2.9381 19.3983 3.72648C20.1867 4.51485 20.6281 5.58508 20.6248 6.7V10C20.6248 11.3261 20.098 12.5979 19.1603 13.5355C18.2226 14.4732 16.9508 15 15.6248 15Z" fill="#7B7B7B"/>
</svg>
