<svg width="260" height="249" viewBox="0 0 260 249" fill="none" xmlns="http://www.w3.org/2000/svg">
<path d="M16.9612 203.763C20.877 205.047 24.5797 207.987 29.8376 212.54C23.2049 215.815 18.9437 216.222 15.139 214.742C13.1515 213.968 11.252 212.666 9.18044 210.911C7.48222 209.473 5.69038 207.75 3.6504 205.789C3.38366 205.532 3.11267 205.272 2.83709 205.007C8.97674 202.826 13.1044 202.498 16.9612 203.763Z" fill="#30E985" stroke="#00BE5E"/>
<path d="M2.54477 204.756C12.6182 210.429 19.5858 208.732 29.509 212.058" stroke="#00BE5E"/>
<path d="M16.3987 160.508C20.3145 161.792 24.0172 164.732 29.2751 169.285C22.6424 172.56 18.3812 172.967 14.5765 171.487C12.589 170.713 10.6895 169.411 8.61794 167.656C6.91972 166.218 5.12788 164.495 3.0879 162.534C2.82116 162.277 2.55017 162.017 2.27459 161.752C8.41424 159.571 12.5419 159.243 16.3987 160.508Z" fill="#30E985" stroke="#00BE5E"/>
<path d="M1.98227 161.501C12.0557 167.174 19.0233 165.477 28.9465 168.803" stroke="#00BE5E"/>
<path d="M52.6491 194.097C48.5578 194.591 43.9586 193.494 37.268 191.594C41.8911 185.82 45.5795 183.647 49.6533 183.378C51.7814 183.238 54.0535 183.614 56.673 184.327C58.8204 184.911 61.173 185.714 63.8514 186.627C64.2016 186.747 64.5574 186.868 64.919 186.991C60.2797 191.566 56.6787 193.61 52.6491 194.097Z" fill="#30E985" stroke="#00BE5E"/>
<path d="M65.2898 187.096C53.762 186.219 48.1674 190.706 37.7689 191.892" stroke="#00BE5E"/>
<path d="M52.6491 146.348C48.5578 146.842 43.9586 145.744 37.268 143.845C41.8911 138.07 45.5795 135.898 49.6533 135.629C51.7814 135.489 54.0535 135.865 56.673 136.578C58.8204 137.162 61.173 137.965 63.8514 138.878C64.2016 138.998 64.5574 139.119 64.919 139.242C60.2797 143.817 56.6787 145.861 52.6491 146.348Z" fill="#30E985" stroke="#00BE5E"/>
<path d="M65.2898 139.346C53.762 138.47 48.1674 142.956 37.7689 144.142" stroke="#00BE5E"/>
<mask id="path-9-outside-1_37_825" maskUnits="userSpaceOnUse" x="29.8965" y="109.185" width="10" height="140" fill="black">
<rect fill="white" x="29.8965" y="109.185" width="10" height="140"/>
<path d="M29.8965 109.185C33.9297 109.185 37.1993 112.454 37.1993 116.487V248.5H29.8965V109.185Z"/>
</mask>
<path d="M29.8965 109.185C33.9297 109.185 37.1993 112.454 37.1993 116.487V248.5H29.8965V109.185Z" fill="#30E985"/>
<path d="M29.8965 109.185H37.1993H29.8965ZM37.1993 248.5H29.8965H37.1993ZM29.8965 248.5V109.185V248.5ZM29.8965 109.185C35.0343 109.185 39.1993 113.35 39.1993 118.487V248.5H35.1993V116.487C35.1993 112.454 32.8252 109.185 29.8965 109.185H29.8965Z" fill="#00BE5E" mask="url(#path-9-outside-1_37_825)"/>
<path d="M99.0939 168.491C106.261 170.841 113.008 176.262 122.592 184.575C110.441 190.665 102.608 191.502 95.5871 188.769C91.9909 187.37 88.5712 185.021 84.8695 181.885C81.8361 179.316 78.6353 176.238 75.0034 172.746C74.3836 172.15 73.7513 171.542 73.105 170.923C84.3999 166.835 91.9865 166.161 99.0939 168.491Z" fill="#30E985" stroke="#00BE5E"/>
<path d="M73.3107 170.629C91.2428 180.728 103.646 177.708 121.311 183.629" stroke="#00BE5E"/>
<path d="M98.0939 91.4911C105.261 93.8411 112.008 99.2622 121.592 107.575C109.441 113.665 101.608 114.502 94.5871 111.769C90.9909 110.37 87.5712 108.021 83.8695 104.885C80.8361 102.316 77.6353 99.2383 74.0034 95.7463C73.3836 95.1504 72.7513 94.5424 72.105 93.9227C83.3999 89.8353 90.9865 89.1605 98.0939 91.4911Z" fill="#30E985" stroke="#00BE5E"/>
<path d="M72.3107 93.6294C90.2428 103.728 102.646 100.708 120.311 106.629" stroke="#00BE5E"/>
<path d="M162.55 152.042C155.063 152.946 146.655 150.891 134.454 147.416C142.885 136.755 149.628 132.682 157.145 132.186C160.996 131.932 165.088 132.613 169.769 133.887C173.605 134.931 177.807 136.364 182.576 137.991C183.39 138.269 184.22 138.552 185.068 138.84C176.564 147.323 169.976 151.146 162.55 152.042Z" fill="#30E985" stroke="#00BE5E"/>
<path d="M185.006 139.192C164.485 137.632 154.526 145.618 136.015 147.729" stroke="#00BE5E"/>
<path d="M162.549 67.0423C155.062 67.9465 146.654 65.8905 134.453 62.4156C142.884 51.7545 149.627 47.6817 157.144 47.1857C160.995 46.9316 165.087 47.6128 169.768 48.8868C173.604 49.9308 177.806 51.3643 182.575 52.991C183.389 53.2686 184.219 53.5518 185.067 53.8397C176.563 62.3234 169.975 66.1457 162.549 67.0423Z" fill="#30E985" stroke="#00BE5E"/>
<path d="M185.005 54.1922C164.484 52.632 154.525 60.618 136.014 62.7295" stroke="#00BE5E"/>
<mask id="path-19-outside-2_37_825" maskUnits="userSpaceOnUse" x="122.001" y="0.5" width="15" height="248" fill="black">
<rect fill="white" x="122.001" y="0.5" width="15" height="248"/>
<path d="M122.001 0.5C129.181 0.5 135.001 6.3203 135.001 13.5V248.5H122.001V0.5Z"/>
</mask>
<path d="M122.001 0.5C129.181 0.5 135.001 6.3203 135.001 13.5V248.5H122.001V0.5Z" fill="#30E985"/>
<path d="M122.001 0.5H135.001H122.001ZM135.001 248.5H122.001H135.001ZM122.001 248.5V0.5V248.5ZM122.001 0.5C130.285 0.5 137.001 7.21573 137.001 15.5V248.5H133.001V13.5C133.001 6.3203 128.076 0.5 122.001 0.5Z" fill="#00BE5E" mask="url(#path-19-outside-2_37_825)"/>
<path d="M208.181 203.763C212.097 205.047 215.799 207.987 221.057 212.54C214.425 215.815 210.163 216.222 206.359 214.742C204.371 213.968 202.472 212.666 200.4 210.911C198.702 209.473 196.91 207.75 194.87 205.789C194.603 205.532 194.332 205.272 194.057 205.007C200.196 202.826 204.324 202.498 208.181 203.763Z" fill="#30E985" stroke="#00BE5E"/>
<path d="M193.764 204.756C203.838 210.429 210.805 208.732 220.729 212.058" stroke="#00BE5E"/>
<path d="M207.618 160.508C211.534 161.792 215.237 164.732 220.495 169.285C213.862 172.56 209.601 172.967 205.796 171.487C203.809 170.713 201.909 169.411 199.838 167.656C198.139 166.218 196.348 164.495 194.308 162.534C194.041 162.277 193.77 162.017 193.494 161.752C199.634 159.571 203.762 159.243 207.618 160.508Z" fill="#30E985" stroke="#00BE5E"/>
<path d="M193.202 161.501C203.275 167.174 210.243 165.477 220.166 168.803" stroke="#00BE5E"/>
<path d="M243.868 194.097C239.777 194.591 235.177 193.494 228.487 191.594C233.11 185.82 236.798 183.647 240.872 183.378C243 183.238 245.272 183.614 247.892 184.327C250.039 184.911 252.392 185.714 255.07 186.627C255.42 186.747 255.776 186.868 256.138 186.991C251.498 191.566 247.897 193.61 243.868 194.097Z" fill="#30E985" stroke="#00BE5E"/>
<path d="M256.509 187.096C244.981 186.219 239.386 190.706 228.988 191.892" stroke="#00BE5E"/>
<path d="M243.868 146.348C239.777 146.842 235.177 145.744 228.487 143.845C233.11 138.07 236.798 135.898 240.872 135.629C243 135.489 245.272 135.865 247.892 136.578C250.039 137.162 252.392 137.965 255.07 138.878C255.42 138.998 255.776 139.119 256.138 139.242C251.498 143.817 247.897 145.861 243.868 146.348Z" fill="#30E985" stroke="#00BE5E"/>
<path d="M256.509 139.346C244.981 138.47 239.386 142.956 228.988 144.142" stroke="#00BE5E"/>
<mask id="path-29-outside-3_37_825" maskUnits="userSpaceOnUse" x="221.116" y="109.185" width="10" height="140" fill="black">
<rect fill="white" x="221.116" y="109.185" width="10" height="140"/>
<path d="M221.116 109.185C225.149 109.185 228.419 112.454 228.419 116.487V248.5H221.116V109.185Z"/>
</mask>
<path d="M221.116 109.185C225.149 109.185 228.419 112.454 228.419 116.487V248.5H221.116V109.185Z" fill="#30E985"/>
<path d="M221.116 109.185H228.419H221.116ZM228.419 248.5H221.116H228.419ZM221.116 248.5V109.185V248.5ZM221.116 109.185C226.254 109.185 230.419 113.35 230.419 118.487V248.5H226.419V116.487C226.419 112.454 224.045 109.185 221.116 109.185H221.116Z" fill="#00BE5E" mask="url(#path-29-outside-3_37_825)"/>
</svg>
