<svg width="5292" height="1090" viewBox="0 0 5292 1090" fill="none" xmlns="http://www.w3.org/2000/svg">
<path d="M914.225 840.553V746.983C814.445 762.739 762.098 783.625 679.849 858.096L603.895 1051.08H673.991C810.616 994.647 864.731 949.485 914.225 840.553Z" fill="#30E985" stroke="#30E985"/>
<path d="M165.774 608.933V272.593C284.082 295.622 349.215 347.256 432.664 458.161V800.302C319.482 750.914 259.625 713.04 165.774 608.933Z" fill="#30E985" stroke="#30E985"/>
<path d="M513.876 632.131C646.631 442.329 735.551 378.717 908.405 307.389V545.148C821.258 603.231 780.387 642.162 716.945 719.119C638.607 800.04 620.345 849.614 570.409 944.644L542.886 1084.45H513.876V632.131Z" fill="#30E985" stroke="#30E985"/>
<path d="M544.331 5.46677C460.112 5.20967 391.631 73.2395 391.373 157.416C391.116 241.592 459.18 310.039 543.399 310.296C627.618 310.553 696.099 242.523 696.356 158.347C696.614 74.1706 628.549 5.72387 544.331 5.46677Z" fill="#30E985"/>
<path d="M1517.66 838C1477.31 838 1439.59 830.46 1404.52 815.384C1369.72 800.037 1339.24 778.901 1313.08 751.978C1287.2 724.784 1266.89 693.552 1252.13 658.283C1237.37 622.743 1230 584.78 1230 544.394C1230 502.662 1237.66 464.026 1252.96 428.487C1268.56 392.947 1289.7 361.983 1316.42 335.599C1343.42 309.213 1374.19 288.751 1408.69 274.212C1443.49 259.403 1480.23 252 1518.91 252C1562.9 252 1604.78 261.961 1644.58 281.886C1684.39 301.808 1718.63 330.617 1747.29 368.311L1684.67 401.024C1663.23 374.638 1637.76 354.445 1608.26 340.445C1579.04 326.444 1548.98 319.445 1518.08 319.445C1488.58 319.445 1460.61 325.232 1434.16 336.81C1408 348.387 1384.75 364.542 1364.44 385.274C1344.4 406.004 1328.68 429.967 1317.26 457.161C1305.84 484.353 1300.14 513.834 1300.14 545.606C1300.14 576.568 1305.84 605.646 1317.26 632.839C1328.68 660.031 1344.25 683.994 1364.02 704.726C1384.06 725.188 1407.3 741.207 1433.74 752.786C1460.19 764.362 1488.44 770.152 1518.5 770.152C1542.44 770.152 1565.11 766.247 1586.55 758.44C1608.26 750.631 1628.16 739.592 1646.25 725.323C1664.62 711.053 1680.22 694.226 1693.02 674.841C1706.1 655.456 1715.98 634.184 1722.66 611.031H1578.62V550.452H1804.49C1804.22 590.03 1796.41 627.185 1781.11 661.917C1766.08 696.649 1745.35 727.207 1718.9 753.593C1692.74 779.978 1662.39 800.71 1627.88 815.788C1593.65 830.595 1556.91 838 1517.66 838ZM1885.2 827.5V423.64H1955.34V474.123C1970.08 455.275 1988.74 440.332 2011.28 429.294C2033.83 417.986 2058.32 412.332 2084.76 412.332C2100.9 412.332 2116.49 414.351 2131.52 418.39L2103.13 486.238C2091.72 482.737 2080.59 480.988 2069.73 480.988C2048.86 480.988 2029.65 485.968 2012.12 495.931C1994.85 505.624 1981.08 518.816 1970.78 535.509C1960.47 552.201 1955.34 570.779 1955.34 591.242V827.5H1885.2ZM2345.32 838C2306.91 838 2271.84 828.441 2240.11 809.326C2208.67 790.209 2183.48 764.631 2164.54 732.593C2145.9 700.284 2136.57 664.609 2136.57 625.57C2136.57 595.953 2142 568.355 2152.85 542.779C2163.71 516.932 2178.61 494.316 2197.53 474.93C2216.73 455.275 2239.01 439.928 2264.33 428.89C2289.67 417.851 2316.66 412.332 2345.32 412.332C2383.74 412.332 2418.68 421.89 2450.12 441.006C2481.85 460.121 2507.05 485.835 2525.69 518.143C2544.62 550.452 2554.08 586.26 2554.08 625.57C2554.08 654.916 2548.65 682.379 2537.8 707.957C2526.94 733.534 2511.91 756.15 2492.7 775.806C2473.79 795.191 2451.66 810.402 2426.32 821.442C2401.27 832.479 2374.28 838 2345.32 838ZM2345.32 770.152C2371.5 770.152 2395.01 763.555 2415.88 750.363C2437.05 736.9 2453.6 719.265 2465.57 697.457C2477.82 675.378 2483.94 651.417 2483.94 625.57C2483.94 599.184 2477.67 574.952 2465.15 552.875C2452.91 530.796 2436.34 513.162 2415.47 499.97C2394.59 486.776 2371.21 480.181 2345.32 480.181C2319.17 480.181 2295.64 486.911 2274.77 500.374C2253.89 513.566 2237.34 531.2 2225.08 553.279C2212.85 575.356 2206.71 599.453 2206.71 625.57C2206.71 652.493 2212.97 676.994 2225.5 699.072C2238.03 720.881 2254.87 738.247 2276.02 751.17C2297.18 763.823 2320.27 770.152 2345.32 770.152ZM2791.02 827.5H2720.05L2580.18 423.64H2648.65L2756.37 731.785L2862.83 423.64H2935.06L3041.94 731.785L3148.41 423.64H3217.71L3077.85 827.5H3006.46L2898.32 516.528L2791.02 827.5ZM3292.65 827.5V262.096H3362.79V759.651H3624.57V827.5H3292.65ZM3859.6 838C3821.19 838 3786.12 828.441 3754.39 809.326C3722.95 790.209 3697.76 764.631 3678.82 732.593C3660.18 700.284 3650.85 664.609 3650.85 625.57C3650.85 595.953 3656.28 568.355 3667.13 542.779C3677.99 516.932 3692.89 494.316 3711.81 474.93C3731.01 455.275 3753.29 439.928 3778.61 428.89C3803.95 417.851 3830.94 412.332 3859.6 412.332C3891.06 412.332 3919.87 418.524 3946.03 430.91C3972.48 443.026 3995.02 459.988 4013.66 481.796C4032.6 503.604 4046.65 528.912 4055.83 557.722C4065.31 586.529 4068.78 617.358 4066.27 650.205H3725.58C3728.92 673.09 3736.73 693.552 3748.96 711.592C3761.22 729.362 3776.81 743.497 3795.73 753.997C3814.93 764.498 3836.22 769.881 3859.6 770.152C3884.65 770.152 3907.35 763.959 3927.66 751.574C3947.99 738.919 3964.4 721.689 3976.92 699.88L4048.32 716.034C4031.62 751.843 4006.44 781.189 3972.75 804.076C3939.08 826.692 3901.35 838 3859.6 838ZM3723.5 596.896H3995.71C3993.5 574.28 3985.98 553.683 3973.17 535.105C3960.37 516.257 3944.09 501.181 3924.32 489.873C3904.57 478.565 3882.98 472.911 3859.6 472.911C3836.22 472.911 3814.8 478.43 3795.31 489.469C3775.83 500.507 3759.69 515.45 3746.88 534.298C3734.35 552.875 3726.56 573.741 3723.5 596.896ZM4469.85 423.64H4540V827.5H4469.85L4466.93 759.247C4453.86 782.671 4435.76 801.653 4412.66 816.192C4389.84 830.731 4362.56 838 4330.82 838C4300.22 838 4271.54 832.479 4244.82 821.442C4218.1 810.134 4194.44 794.652 4173.84 774.998C4153.53 755.074 4137.66 732.189 4126.25 706.342C4114.85 680.495 4109.13 652.629 4109.13 622.743C4109.13 593.934 4114.7 566.74 4125.83 541.163C4136.97 515.585 4152.42 493.238 4172.17 474.123C4192.21 454.737 4215.32 439.659 4241.48 428.89C4267.65 417.851 4295.75 412.332 4325.81 412.332C4358.67 412.332 4387.48 419.87 4412.24 434.948C4437.02 449.756 4457.06 469.006 4472.36 492.7L4469.85 423.64ZM4329.57 772.171C4357.13 772.171 4380.93 765.709 4400.97 752.786C4421.3 739.592 4436.87 721.822 4447.73 699.476C4458.87 677.129 4464.43 652.493 4464.43 625.57C4464.43 598.108 4458.87 573.337 4447.73 551.26C4436.6 528.912 4420.88 511.278 4400.55 498.354C4380.51 485.16 4356.86 478.565 4329.57 478.565C4302.02 478.565 4276.97 485.16 4254.42 498.354C4231.88 511.546 4213.92 529.316 4200.56 551.664C4187.49 573.741 4180.94 598.376 4180.94 625.57C4180.94 652.762 4187.76 677.533 4201.4 699.88C4215.05 721.957 4233.13 739.592 4255.67 752.786C4278.22 765.709 4302.85 772.171 4329.57 772.171ZM4623.44 827.5V423.64H4693.58V474.123C4708.34 455.275 4726.98 440.332 4749.53 429.294C4772.07 417.986 4796.58 412.332 4823.01 412.332C4839.17 412.332 4854.74 414.351 4869.77 418.39L4841.38 486.238C4829.98 482.737 4818.84 480.988 4807.98 480.988C4787.1 480.988 4767.9 485.968 4750.36 495.931C4733.12 505.624 4719.34 518.816 4709.03 535.509C4698.74 552.201 4693.58 570.779 4693.58 591.242V827.5H4623.44ZM5291.8 576.299V827.5H5221.66V591.242C5221.66 570.779 5216.5 552.201 5206.21 535.509C5195.9 518.816 5182.12 505.624 5164.88 495.931C5147.61 485.968 5128.41 480.988 5107.26 480.988C5086.38 480.988 5067.18 485.968 5049.64 495.931C5032.38 505.624 5018.6 518.816 5008.31 535.509C4998 552.201 4992.86 570.779 4992.86 591.242V827.5H4922.72V423.64H4992.86V474.123C5007.6 455.275 5026.26 440.332 5048.81 429.294C5071.35 417.986 5095.84 412.332 5122.29 412.332C5153.46 412.332 5181.85 419.735 5207.46 434.544C5233.35 449.083 5253.81 468.737 5268.84 493.508C5284.14 518.277 5291.8 545.874 5291.8 576.299Z" fill="#2C2C2C"/>
</svg>
