<svg width="124" height="249" viewBox="0 0 124 249" fill="none" xmlns="http://www.w3.org/2000/svg">
<path d="M31.0939 168.491C38.2605 170.841 45.0078 176.262 54.5919 184.575C42.4408 190.665 34.608 191.502 27.5871 188.769C23.9909 187.37 20.5712 185.021 16.8695 181.885C13.8361 179.316 10.6353 176.238 7.00343 172.746C6.38362 172.15 5.75125 171.542 5.10502 170.923C16.3999 166.835 23.9865 166.161 31.0939 168.491Z" fill="#30E985" stroke="#00BE5E"/>
<path d="M5.31067 170.629C23.2428 180.728 35.6459 177.708 53.3107 183.629" stroke="#00BE5E"/>
<path d="M30.0939 91.4911C37.2605 93.8411 44.0078 99.2622 53.5919 107.575C41.4408 113.665 33.608 114.502 26.5871 111.769C22.9909 110.37 19.5712 108.021 15.8695 104.885C12.8361 102.316 9.63532 99.2383 6.00343 95.7463C5.38362 95.1504 4.75125 94.5424 4.10502 93.9227C15.3999 89.8353 22.9865 89.1605 30.0939 91.4911Z" fill="#30E985" stroke="#00BE5E"/>
<path d="M4.31067 93.6294C22.2428 103.728 34.6459 100.708 52.3107 106.629" stroke="#00BE5E"/>
<path d="M94.5504 152.042C87.0627 152.946 78.6552 150.891 66.4536 147.416C74.8849 136.755 81.6276 132.682 89.1451 132.186C92.9957 131.932 97.0883 132.613 101.769 133.887C105.605 134.931 109.807 136.364 114.576 137.991C115.39 138.269 116.22 138.552 117.068 138.84C108.564 147.323 101.976 151.146 94.5504 152.042Z" fill="#30E985" stroke="#00BE5E"/>
<path d="M117.006 139.192C96.4852 137.632 86.5261 145.618 68.0153 147.729" stroke="#00BE5E"/>
<path d="M94.5495 67.0423C87.0617 67.9465 78.6542 65.8905 66.4526 62.4156C74.884 51.7545 81.6266 47.6817 89.1441 47.1857C92.9947 46.9316 97.0873 47.6128 101.768 48.8868C105.604 49.9308 109.806 51.3643 114.575 52.991C115.389 53.2686 116.219 53.5518 117.067 53.8397C108.563 62.3234 101.975 66.1457 94.5495 67.0423Z" fill="#30E985" stroke="#00BE5E"/>
<path d="M117.005 54.1922C96.4843 52.632 86.5251 60.618 68.0143 62.7295" stroke="#00BE5E"/>
<mask id="path-9-outside-1_37_840" maskUnits="userSpaceOnUse" x="54.001" y="0.5" width="15" height="248" fill="black">
<rect fill="white" x="54.001" y="0.5" width="15" height="248"/>
<path d="M54.001 0.5C61.1807 0.5 67.001 6.3203 67.001 13.5V248.5H54.001V0.5Z"/>
</mask>
<path d="M54.001 0.5C61.1807 0.5 67.001 6.3203 67.001 13.5V248.5H54.001V0.5Z" fill="#30E985"/>
<path d="M54.001 0.5H67.001H54.001ZM67.001 248.5H54.001H67.001ZM54.001 248.5V0.5V248.5ZM54.001 0.5C62.2852 0.5 69.001 7.21573 69.001 15.5V248.5H65.001V13.5C65.001 6.3203 60.0761 0.5 54.001 0.5Z" fill="#00BE5E" mask="url(#path-9-outside-1_37_840)"/>
</svg>
